# xmcd
#
# Track frame offsets: 
#        150
#        11477
#        22858
#        32983
#        43293
#        55097
#        65602
#        77489
#        90013
#        103788
#        116290
#        128715
#        137417
#        148521
#        158071
#        168945
#        180955
#        193049
#        204725
#        214320
#        226188
#        238783
#        247539
#        261259
#        272001
#
# Disc length: 3761 seconds
#
# Revision: 3
# Processed by: cddbd v1.5.2PL0 Copyright (c) Steve Scherf et al.
# Submitted via: ExactAudioCopy v1.1
#
DISCID=440eaf19
DTITLE=Various Artist - Dreamboats and Petticoats D - At The Hop CD1
DYEAR=2013
DGENRE=Rock and Roll
TTITLE0=At The Hop - Danny and The Juniors
TTITLE1=Sherry - Four Seasons, The
TTITLE2=Blue Moon - Marcels, The
TTITLE3=Why Do Fools Fall In Love - Lymon, Frankie
TTITLE4=Happy Birthday Sweet Sixteen - Sedaka, Neil
TTITLE5=Who Wrote The Book Of Love - Monotones, The
TTITLE6=The Great Pretender - Platters, The
TTITLE7=Sh-Boom - Crew Cuts, The
TTITLE8=Boy From New York - Ad Libs, The
TTITLE9=Who Put The Bomp (In The Bomp, Bomp, Bomp) - Viscounts, The
TTITLE10=Get A Job - Silhouettes, The
TTITLE11=It's Late - Nelson, Ricky
TTITLE12=Take Good Care Of Your Baby - Vee, Bobby
TTITLE13=La Bamba - Valens, Richie
TTITLE14=The Locomotion - Little Eva
TTITLE15=Will You Love Me Tomorrow - Shirelles, The
TTITLE16=Life Is But A Dream - Harptones, The
TTITLE17=The Lion Sleeps Tonight (Wimoweh) - Tokens, The
TTITLE18=Lollipop - Chordettes, The
TTITLE19=Come Go With Me - Del-Vikings, The
TTITLE20=Shop Around - Miracles, The
TTITLE21=Denise - Randy and The Rainbows
TTITLE22=Crying In The Chapel - Till, Sonny
TTITLE23=Chantilly Lace - Big Bopper, The
TTITLE24=Wear Your Ring Around My Neck - Presley, Elvis
EXTD=
EXTT0=
EXTT1=
EXTT2=
EXTT3=
EXTT4=
EXTT5=
EXTT6=
EXTT7=
EXTT8=
EXTT9=
EXTT10=
EXTT11=
EXTT12=
EXTT13=
EXTT14=
EXTT15=
EXTT16=
EXTT17=
EXTT18=
EXTT19=
EXTT20=
EXTT21=
EXTT22=
EXTT23=
EXTT24=
PLAYORDER=
